<svg width="373" height="99" viewBox="0 0 373 99" fill="none" xmlns="http://www.w3.org/2000/svg">
<path d="M14.2822 2.22134C15.6832 2.6857 17.2669 3.686 18.3563 4.7792C20.1887 6.60817 21.3706 8.86959 21.8626 11.5126C22.0207 12.3398 22.0005 14.2908 21.46 49.0445C20.9215 83.6675 20.8791 85.7489 20.6961 86.5206C20.1357 88.9259 19.1505 90.8317 17.5234 92.6169C16.244 94.0354 14.69 95.007 12.7387 95.6506L11.7784 95.9575L39.6839 96.3915C57.1412 96.663 67.8714 96.7997 68.345 96.7467C72.7685 96.2422 76.4449 93.3321 77.8568 89.21C78.1724 88.3197 78.4101 87.2672 78.5153 86.3234L78.5963 85.6407L47.6546 85.1092L46.904 84.8662C43.7616 83.8416 41.3362 81.3396 40.4595 78.2078L40.24 77.45L40.4064 62.8678C40.496 54.5207 40.6082 47.9542 40.6655 47.5025C40.9634 45.1635 42.3173 42.8309 44.2107 41.3817C45.1677 40.6422 46.7287 39.8719 47.8598 39.5777L48.6679 39.3589L79.2895 39.7748L79.494 26.6215C79.6684 15.409 79.6805 13.3371 79.5612 12.601C78.8472 8.06357 75.8642 4.54701 71.6593 3.28466C70.468 2.92414 71.7045 2.96349 39.9784 2.42985L13.6318 2L14.2822 2.22134ZM71.2042 23.4951C72.09 24.1023 72.0421 25.2382 71.1285 25.7772C70.8136 25.9735 70.4516 25.9678 50.6613 25.6601C32.3593 25.3754 30.479 25.3361 30.1696 25.1805C29.1514 24.6818 29.2444 23.2248 30.3177 22.7687C30.5709 22.662 34.2014 22.6984 50.7437 22.9456L70.8659 23.2585L71.2042 23.4951ZM71.0117 34.5765C71.4003 34.8139 71.7137 35.362 71.7069 35.7944C71.7012 36.1665 71.3915 36.6746 71.0157 36.9102C70.7516 37.0771 69.8363 37.0729 50.5187 36.7725C31.2513 36.4728 30.2861 36.4478 29.977 36.2719C29.1294 35.7961 29.046 34.6884 29.7905 34.0361C30.0148 33.8384 30.1958 33.8412 38.9353 33.9268C43.8331 33.9728 52.9844 34.095 59.2594 34.1926C70.492 34.3673 70.683 34.3703 71.0117 34.5765ZM36.1428 45.3299C37.0204 45.8163 37.0505 47.1143 36.1877 47.6139C35.8831 47.8003 35.6617 47.8069 32.9465 47.7647C30.2917 47.7234 30.0004 47.6987 29.7515 47.5339C29.1145 47.1016 28.9259 46.294 29.3074 45.6964C29.6992 45.0789 29.8606 45.0512 32.988 45.0998C35.5322 45.1394 35.8436 45.1643 36.1428 45.3299ZM35.978 56.5727C36.8849 57.1099 36.8445 58.4169 35.9117 58.8952C35.6278 59.0417 35.2555 59.046 32.7217 58.9864C30.7509 58.9457 29.7863 58.8804 29.6166 58.7973C29.4769 58.7247 29.2588 58.5202 29.1411 58.3272C28.6302 57.5448 29.0893 56.4857 30.0275 56.3092C30.2292 56.2721 31.5772 56.2629 33.015 56.2953C35.4282 56.353 35.6592 56.3767 35.978 56.5727ZM35.8826 67.877C36.7492 68.4236 36.6582 69.7499 35.716 70.1878C35.2905 70.3824 35.1495 70.3903 32.4751 70.3185C29.9716 70.2494 29.6401 70.2241 29.4012 70.0595C28.575 69.5035 28.5421 68.3865 29.326 67.7851C29.5905 67.588 29.7114 67.5798 32.5773 67.6244C35.383 67.668 35.5739 67.6811 35.8826 67.877Z" fill="#85193C"/>
<path d="M8.62668 4.33614C4.92391 5.06311 2.20553 7.81709 1.43228 11.6172C1.29154 12.2588 1.2473 13.1634 1.20695 15.7578L1.15534 19.0763L1.82852 19.7708L6.04169 19.8564C10.8984 19.952 19.1753 20.0305 19.2262 19.991C19.2467 19.9712 19.2451 18.1305 19.2296 15.8973C19.1992 12.6781 19.1637 11.722 19.0404 11.2473C18.138 7.82347 16.0014 5.50697 12.8279 4.54229C11.8768 4.25592 9.59534 4.13997 8.62668 4.33614Z" fill="#4A102A"/>
<path d="M48.9773 42.0995C47.959 42.2547 46.683 42.8082 45.8077 43.4685C44.2402 44.6612 43.3156 46.5479 43.1796 48.829C43.1391 49.4922 43.0568 56.0793 42.9822 63.461L42.8639 76.8872L43.1229 77.6959C43.7379 79.5462 44.794 80.8401 46.3606 81.649C48.1268 82.5616 46.2575 82.4621 66.1488 82.7413C80.9115 82.9407 83.8886 82.9568 84.343 82.8432C85.615 82.5411 87.0065 81.6776 87.806 80.7144C88.3391 80.0688 88.9377 79.0924 88.9416 78.841C88.943 78.7505 88.6397 78.2026 88.2665 77.6235C87.6671 76.7089 86.5585 74.9113 85.7739 73.6217L85.519 73.1953L85.0347 73.2883C84.379 73.4089 82.0965 73.3633 81.2338 73.2091C78.6458 72.7565 75.9937 71.2467 74.2944 69.2689C73.4647 68.2904 73.0722 67.6607 72.478 66.4142C71.6993 64.7425 71.3821 63.1483 71.4145 61.0667C71.4514 58.6935 72.1073 56.6216 73.4768 54.5809C76.8031 49.6034 83.4781 47.9067 88.8061 50.6853L89.9734 51.2969L89.9919 50.1102C90.0227 48.1292 89.6717 46.7659 88.8259 45.5356C87.9897 44.3257 86.8566 43.4531 85.4665 42.9386L84.6263 42.6338L66.9278 42.3485C57.1937 42.1871 49.1186 42.0716 48.9773 42.0995ZM51.7509 50.6723C52.3395 50.9832 58.2413 55.0279 65.3459 59.9866C66.8783 61.0565 68.2307 62.0532 68.3593 62.196C68.5961 62.4914 68.6554 63.2065 68.4587 63.5655C68.3968 63.6652 67.7661 64.118 67.0552 64.5596C65.4807 65.551 61.4875 68.1343 57.5344 70.7283C51.0714 74.963 51.0917 74.9532 50.7498 74.9479C50.3576 74.9418 49.8494 74.6321 49.6138 74.2563C49.447 73.9922 49.4464 73.3786 49.5806 62.8092C49.7244 52.2702 49.7344 51.6266 49.9105 51.2974C50.2834 50.6092 51.1126 50.3203 51.7509 50.6723Z" fill="#4A102A"/>
<path d="M52.2787 62.65C52.2069 67.2657 52.1682 71.0471 52.1984 71.0476C52.2185 71.0479 52.6452 70.7729 53.1331 70.4485C53.6211 70.1141 54.7186 69.3969 55.5518 68.8567C59.6463 66.2247 64.7479 62.864 64.7488 62.8037C64.7397 62.7432 61.3566 60.3771 55.8228 56.5996L52.4091 54.2632L52.2787 62.65Z" fill="#C5172E"/>
<path d="M82.3247 51.5702C81.0454 51.6911 79.0124 52.4139 77.9146 53.1512C77.193 53.6329 75.968 54.7906 75.4644 55.4768C75.2179 55.8049 74.8462 56.4228 74.6487 56.8321C74.275 57.5807 73.8334 58.811 73.934 58.8126C73.9641 58.813 74.3302 58.5572 74.7676 58.2422C76.7313 56.8042 79.5935 55.7925 82.1107 55.6305C84.7989 55.4611 86.994 55.9579 89.7284 57.3483C90.7064 57.8463 91.3836 58.2793 91.9995 58.7817C92.476 59.1814 92.8635 59.4892 92.8639 59.4691C92.8665 59.2981 92.3172 57.7506 92.0836 57.2541C90.1926 53.3723 86.4447 51.1817 82.3247 51.5702Z" fill="#FCF259"/>
<path d="M81.8949 57.8702C80.1034 58.5867 79.0283 60.4509 79.3319 62.2762C79.4705 63.0629 79.7534 63.6306 80.3365 64.2934C82.1057 66.3025 85.4122 65.8309 86.6571 63.3959C87.4767 61.7893 87.2794 60.2473 86.0732 58.9008C85.3315 58.0846 84.5926 57.7411 83.3865 57.6822C82.6026 57.6398 82.401 57.6668 81.8949 57.8702ZM82.3465 58.5813C82.866 58.8107 83.1317 59.187 83.1833 59.751C83.2506 60.597 82.7389 61.1624 81.9042 61.1494C81.2405 61.1391 80.577 60.475 80.587 59.8314C80.596 59.2481 81.0483 58.6215 81.5632 58.4987C81.9064 58.4236 82.0169 58.4354 82.3465 58.5813Z" fill="#C5172E"/>
<path d="M78.1961 58.3458C77.0826 58.8012 75.4059 59.8916 74.2436 60.8995L73.6929 61.3838L74.4767 62.08C74.9032 62.4688 75.6188 63.0231 76.0567 63.3216C76.8728 63.8775 78.2881 64.7142 78.4289 64.7164C78.4691 64.7171 78.3723 64.4741 78.216 64.18C77.8544 63.5005 77.7397 63.1165 77.6431 62.2097C77.5016 60.9603 77.8368 59.4567 78.4442 58.5609C78.7323 58.1429 78.7124 58.1325 78.1961 58.3458Z" fill="#4A102A"/>
<path d="M88.2929 59.1063C88.7315 60.0083 88.8519 60.6741 88.7826 61.9001C88.7152 62.9955 88.4714 63.7963 88.0081 64.4832C87.8641 64.6922 87.781 64.8619 87.8212 64.8625C87.8715 64.8633 88.2973 64.6486 88.7941 64.3948C89.8386 63.8478 91.2211 62.9137 92.047 62.1923L92.6486 61.6686L91.7655 60.8904C91.2894 60.4605 90.584 59.8963 90.1956 59.6489C89.5685 59.2267 88.1324 58.4299 88.0118 58.428C87.9816 58.4276 88.1076 58.7313 88.2929 59.1063Z" fill="#4A102A"/>
<path d="M92.0724 64.4457C90.0172 65.9527 87.6776 66.9825 85.3376 67.3987C84.0465 67.6301 81.9351 67.5772 80.602 67.2748C78.3367 66.7668 76.1804 65.7174 74.2129 64.1679L73.8848 63.9214L74.077 64.4978C74.5285 65.8627 75.5193 67.4774 76.5104 68.4282C77.085 68.9904 78.2891 69.8238 79.0479 70.1877C81.1642 71.2264 83.7754 71.4783 85.9175 70.8578L86.5945 70.6571L86.752 70.8808C86.8305 71.0028 87.252 71.7134 87.6933 72.4445C89.9675 76.2618 92.577 80.5069 92.8144 80.762C93.5367 81.5377 95.0692 81.3 95.799 80.2954C96.0457 79.9573 96.109 79.7672 96.1155 79.3448C96.1252 78.7213 96.3699 79.1577 93.5049 74.5264C92.2782 72.556 90.9934 70.4439 90.6409 69.8248C90.0144 68.7187 90.0046 68.6984 90.179 68.4799C90.9583 67.5264 91.3596 66.9492 91.7325 66.2509C92.1778 65.4331 92.7311 64.1341 92.6616 64.0726C92.6418 64.0522 92.3777 64.2191 92.0724 64.4457Z" fill="#FCF259"/>
<path d="M0.833979 77.2495C0.266149 77.5424 0.24416 77.6628 0.18567 81.4237C0.127649 85.1545 0.177351 85.8393 0.647421 87.3051C1.57735 90.2465 4.18518 92.6609 7.17234 93.3209C8.1547 93.5374 9.84412 93.5636 10.8428 93.378C13.617 92.8579 15.9591 91.0134 17.2274 88.3676C18.0275 86.7204 18.0391 86.62 18.1715 81.9851C18.2374 79.6928 18.2883 77.712 18.2702 77.581L18.2435 77.3593L9.67574 77.2261C2.29445 77.1213 1.0673 77.1223 0.833979 77.2495Z" fill="#4A102A"/>
<mask id="path-2-outside-1_49_45" maskUnits="userSpaceOnUse" x="103.784" y="0" width="270" height="99" fill="black">
<rect fill="white" x="103.784" width="270" height="99"/>
<path d="M127.19 42.073C124.368 42.073 121.838 41.6148 119.602 40.6984C117.366 39.782 115.57 38.4257 114.214 36.6296C112.894 34.8335 112.198 32.6708 112.125 30.1415H122.132C122.278 31.5711 122.773 32.6708 123.616 33.4405C124.459 34.1737 125.559 34.5402 126.915 34.5402C128.308 34.5402 129.408 34.2286 130.214 33.6055C131.021 32.9457 131.424 32.0476 131.424 30.9113C131.424 29.9582 131.094 29.1701 130.434 28.547C129.811 27.9238 129.023 27.4106 128.07 27.0074C127.153 26.6042 125.834 26.146 124.111 25.6328C121.618 24.863 119.584 24.0933 118.008 23.3235C116.432 22.5537 115.075 21.4174 113.939 19.9145C112.803 18.4116 112.235 16.4505 112.235 14.0312C112.235 10.4389 113.536 7.63473 116.138 5.61865C118.741 3.56592 122.132 2.53955 126.31 2.53955C130.562 2.53955 133.99 3.56592 136.592 5.61865C139.195 7.63473 140.588 10.4572 140.771 14.0862H130.599C130.526 12.8399 130.068 11.8685 129.225 11.172C128.381 10.4389 127.3 10.0724 125.98 10.0724C124.844 10.0724 123.928 10.3839 123.231 11.0071C122.535 11.5936 122.187 12.455 122.187 13.5913C122.187 14.8376 122.773 15.809 123.946 16.5055C125.119 17.2019 126.952 17.9534 129.444 18.7598C131.937 19.6029 133.953 20.4093 135.493 21.1791C137.069 21.9489 138.425 23.0669 139.562 24.5331C140.698 25.9994 141.266 27.8872 141.266 30.1965C141.266 32.3958 140.698 34.3936 139.562 36.1897C138.462 37.9859 136.849 39.4155 134.723 40.4785C132.597 41.5415 130.086 42.073 127.19 42.073Z"/>
<path d="M145.458 22.3338C145.458 18.5216 146.282 15.1309 147.932 12.1617C149.582 9.15595 151.872 6.8283 154.805 5.17878C157.774 3.4926 161.128 2.64952 164.867 2.64952C169.449 2.64952 173.371 3.85916 176.634 6.27846C179.896 8.69775 182.077 11.9968 183.177 16.1756H172.84C172.07 14.5627 170.97 13.3347 169.541 12.4916C168.148 11.6486 166.553 11.227 164.757 11.227C161.861 11.227 159.515 12.2351 157.719 14.2511C155.923 16.2672 155.025 18.9614 155.025 22.3338C155.025 25.7061 155.923 28.4003 157.719 30.4164C159.515 32.4325 161.861 33.4405 164.757 33.4405C166.553 33.4405 168.148 33.019 169.541 32.1759C170.97 31.3328 172.07 30.1048 172.84 28.492H183.177C182.077 32.6708 179.896 35.9698 176.634 38.3891C173.371 40.7717 169.449 41.963 164.867 41.963C161.128 41.963 157.774 41.1383 154.805 39.4888C151.872 37.8026 149.582 35.4749 147.932 32.5058C146.282 29.5367 145.458 26.146 145.458 22.3338Z"/>
<path d="M230.003 15.5158C230.003 17.7518 229.49 19.8045 228.463 21.674C227.437 23.5068 225.861 24.9913 223.735 26.1277C221.609 27.264 218.969 27.8322 215.817 27.8322H209.989V41.6881H200.586V3.08939H215.817C218.896 3.08939 221.499 3.6209 223.625 4.68392C225.751 5.74695 227.345 7.21318 228.408 9.08264C229.471 10.9521 230.003 13.0965 230.003 15.5158ZM215.102 20.3544C216.898 20.3544 218.236 19.9328 219.116 19.0897C219.996 18.2466 220.436 17.0553 220.436 15.5158C220.436 13.9762 219.996 12.7849 219.116 11.9418C218.236 11.0987 216.898 10.6772 215.102 10.6772H209.989V20.3544H215.102Z"/>
<path d="M244.3 1V41.6881H234.898V1H244.3Z"/>
<path d="M281.41 11.0071V41.6881H272.008V37.5093C271.055 38.8656 269.753 39.9653 268.104 40.8084C266.491 41.6148 264.695 42.018 262.715 42.018C260.369 42.018 258.298 41.5048 256.502 40.4785C254.706 39.4155 253.313 37.8942 252.323 35.9148C251.334 33.9354 250.839 31.6077 250.839 28.9318V11.0071H260.186V27.6672C260.186 29.72 260.718 31.3145 261.781 32.4508C262.844 33.5872 264.273 34.1553 266.069 34.1553C267.902 34.1553 269.35 33.5872 270.413 32.4508C271.476 31.3145 272.008 29.72 272.008 27.6672V11.0071H281.41Z"/>
<path d="M300.645 42.128C297.969 42.128 295.586 41.6698 293.497 40.7534C291.407 39.837 289.758 38.5907 288.548 37.0145C287.339 35.4016 286.661 33.6055 286.514 31.6261H295.806C295.916 32.6891 296.411 33.5505 297.291 34.2103C298.17 34.8701 299.252 35.2 300.535 35.2C301.708 35.2 302.606 34.9801 303.229 34.5402C303.889 34.0637 304.219 33.4589 304.219 32.7257C304.219 31.846 303.761 31.2045 302.844 30.8013C301.928 30.3614 300.443 29.8849 298.39 29.3717C296.191 28.8585 294.358 28.327 292.892 27.7772C291.426 27.1907 290.161 26.2926 289.098 25.083C288.035 23.8367 287.504 22.1688 287.504 20.0794C287.504 18.3199 287.98 16.7254 288.933 15.2958C289.923 13.8296 291.352 12.6749 293.222 11.8318C295.128 10.9888 297.382 10.5672 299.985 10.5672C303.834 10.5672 306.858 11.5203 309.057 13.4264C311.293 15.3325 312.576 17.8617 312.906 21.0142H304.219C304.072 19.9511 303.596 19.108 302.789 18.4849C302.019 17.8617 300.993 17.5502 299.71 17.5502C298.61 17.5502 297.767 17.7701 297.181 18.21C296.594 18.6132 296.301 19.1814 296.301 19.9145C296.301 20.7942 296.759 21.454 297.676 21.8939C298.629 22.3338 300.095 22.7736 302.074 23.2135C304.347 23.8 306.198 24.3865 307.628 24.973C309.057 25.5228 310.304 26.4392 311.367 27.7222C312.466 28.9685 313.034 30.6547 313.071 32.7807C313.071 34.5769 312.558 36.1897 311.532 37.6193C310.542 39.0122 309.094 40.1119 307.188 40.9184C305.318 41.7248 303.137 42.128 300.645 42.128Z"/>
<path d="M202.626 85.4302H214.943V92.6881H193.224V54.0894H202.626V85.4302Z"/>
<path d="M223.393 83.128C220.388 83.128 217.675 82.4865 215.256 81.2036C212.873 79.9206 210.985 78.0878 209.592 75.7052C208.236 73.3225 207.558 70.5367 207.558 67.3476C207.558 64.1952 208.255 61.4277 209.647 59.045C211.04 56.6257 212.946 54.7746 215.366 53.4916C217.785 52.2087 220.498 51.5672 223.503 51.5672C226.509 51.5672 229.222 52.2087 231.641 53.4916C234.06 54.7746 235.966 56.6257 237.359 59.045C238.752 61.4277 239.449 64.1952 239.449 67.3476C239.449 70.5 238.734 73.2859 237.304 75.7052C235.911 78.0878 233.987 79.9206 231.531 81.2036C229.112 82.4865 226.399 83.128 223.393 83.128ZM223.393 74.9904C225.19 74.9904 226.711 74.3306 227.957 73.0109C229.24 71.6913 229.882 69.8036 229.882 67.3476C229.882 64.8917 229.258 63.0039 228.012 61.6843C226.802 60.3646 225.3 59.7048 223.503 59.7048C221.671 59.7048 220.149 60.3646 218.94 61.6843C217.73 62.9672 217.125 64.855 217.125 67.3476C217.125 69.8036 217.712 71.6913 218.885 73.0109C220.094 74.3306 221.597 74.9904 223.393 74.9904Z"/>
<path d="M256.093 51.5672C258.256 51.5672 260.144 52.0071 261.757 52.8868C263.406 53.7666 264.671 54.9212 265.551 56.3508V52.0071H274.953V82.6331C274.953 85.4557 274.385 88.0032 273.248 90.2759C272.149 92.5852 270.444 94.418 268.135 95.7743C265.862 97.1306 263.021 97.8087 259.612 97.8087C255.067 97.8087 251.383 96.7274 248.561 94.5647C245.738 92.4386 244.125 89.5428 243.722 85.8772H253.014C253.308 87.0502 254.004 87.9666 255.104 88.6264C256.203 89.3229 257.56 89.6711 259.173 89.6711C261.115 89.6711 262.655 89.1029 263.791 87.9666C264.964 86.8669 265.551 85.0891 265.551 82.6331V78.2894C264.634 79.719 263.37 80.892 261.757 81.8084C260.144 82.6881 258.256 83.128 256.093 83.128C253.564 83.128 251.273 82.4865 249.22 81.2036C247.168 79.8839 245.537 78.0328 244.327 75.6502C243.154 73.2309 242.567 70.445 242.567 67.2926C242.567 64.1402 243.154 61.3727 244.327 58.99C245.537 56.6074 247.168 54.7746 249.22 53.4916C251.273 52.2087 253.564 51.5672 256.093 51.5672ZM265.551 67.3476C265.551 65.0016 264.891 63.1505 263.571 61.7942C262.288 60.438 260.712 59.7598 258.843 59.7598C256.973 59.7598 255.379 60.438 254.059 61.7942C252.776 63.1138 252.135 64.9466 252.135 67.2926C252.135 69.6386 252.776 71.5081 254.059 72.901C255.379 74.2573 256.973 74.9354 258.843 74.9354C260.712 74.9354 262.288 74.2573 263.571 72.901C264.891 71.5447 265.551 69.6936 265.551 67.3476Z"/>
<path d="M293.412 51.5672C295.574 51.5672 297.462 52.0071 299.075 52.8868C300.725 53.7666 301.989 54.9212 302.869 56.3508V52.0071H312.271V82.6331C312.271 85.4557 311.703 88.0032 310.567 90.2759C309.467 92.5852 307.762 94.418 305.453 95.7743C303.18 97.1306 300.34 97.8087 296.931 97.8087C292.385 97.8087 288.701 96.7274 285.879 94.5647C283.056 92.4386 281.443 89.5428 281.04 85.8772H290.333C290.626 87.0502 291.322 87.9666 292.422 88.6264C293.522 89.3229 294.878 89.6711 296.491 89.6711C298.434 89.6711 299.973 89.1029 301.109 87.9666C302.282 86.8669 302.869 85.0891 302.869 82.6331V78.2894C301.952 79.719 300.688 80.892 299.075 81.8084C297.462 82.6881 295.574 83.128 293.412 83.128C290.882 83.128 288.591 82.4865 286.539 81.2036C284.486 79.8839 282.855 78.0328 281.645 75.6502C280.472 73.2309 279.886 70.445 279.886 67.2926C279.886 64.1402 280.472 61.3727 281.645 58.99C282.855 56.6074 284.486 54.7746 286.539 53.4916C288.591 52.2087 290.882 51.5672 293.412 51.5672ZM302.869 67.3476C302.869 65.0016 302.209 63.1505 300.889 61.7942C299.607 60.438 298.03 59.7598 296.161 59.7598C294.291 59.7598 292.697 60.438 291.377 61.7942C290.094 63.1138 289.453 64.9466 289.453 67.2926C289.453 69.6386 290.094 71.5081 291.377 72.901C292.697 74.2573 294.291 74.9354 296.161 74.9354C298.03 74.9354 299.607 74.2573 300.889 72.901C302.209 71.5447 302.869 69.6936 302.869 67.3476Z"/>
<path d="M347.995 66.8527C347.995 67.7325 347.94 68.6489 347.83 69.6019H326.551C326.698 71.5081 327.303 72.9743 328.366 74.0007C329.465 74.9904 330.803 75.4852 332.379 75.4852C334.725 75.4852 336.357 74.4955 337.273 72.5161H347.28C346.767 74.5322 345.832 76.3466 344.476 77.9595C343.156 79.5724 341.488 80.837 339.472 81.7534C337.456 82.6698 335.202 83.128 332.709 83.128C329.703 83.128 327.028 82.4865 324.682 81.2036C322.336 79.9206 320.503 78.0878 319.183 75.7052C317.864 73.3225 317.204 70.5367 317.204 67.3476C317.204 64.1585 317.845 61.3727 319.128 58.99C320.448 56.6074 322.281 54.7746 324.627 53.4916C326.973 52.2087 329.667 51.5672 332.709 51.5672C335.678 51.5672 338.318 52.1904 340.627 53.4367C342.936 54.683 344.732 56.4608 346.015 58.7701C347.335 61.0794 347.995 63.7736 347.995 66.8527ZM338.373 64.3785C338.373 62.7656 337.823 61.4826 336.723 60.5296C335.623 59.5765 334.249 59.1 332.599 59.1C331.023 59.1 329.685 59.5582 328.585 60.4746C327.522 61.391 326.863 62.6923 326.606 64.3785H338.373Z"/>
<path d="M362.357 57.1206C363.457 55.4344 364.831 54.1148 366.481 53.1617C368.131 52.172 369.963 51.6772 371.979 51.6772V61.6293H369.395C367.049 61.6293 365.29 62.1425 364.117 63.1688C362.944 64.1585 362.357 65.918 362.357 68.4473V82.6881H352.955V52.0071H362.357V57.1206Z"/>
<path d="M129.455 83.9231H116.615L114.556 90H105.784L118.232 55.5968H127.935L140.383 90H131.513L129.455 83.9231ZM127.298 77.4541L123.035 64.8592L118.82 77.4541H127.298Z"/>
<path d="M170.391 66.6725C170.391 68.6655 169.933 70.4951 169.019 72.1613C168.104 73.7949 166.699 75.1181 164.804 76.1309C162.909 77.1437 160.557 77.6501 157.747 77.6501H152.552V90H144.172V55.5968H157.747C160.491 55.5968 162.811 56.0705 164.706 57.018C166.601 57.9655 168.022 59.2724 168.97 60.9386C169.917 62.6049 170.391 64.5162 170.391 66.6725ZM157.11 70.9851C158.711 70.9851 159.903 70.6094 160.687 69.858C161.472 69.1065 161.864 68.0447 161.864 66.6725C161.864 65.3003 161.472 64.2384 160.687 63.487C159.903 62.7356 158.711 62.3598 157.11 62.3598H152.552V70.9851H157.11Z"/>
<path d="M183.134 55.5968V90H174.754V55.5968H183.134Z"/>
</mask>
<path d="M127.19 42.073C124.368 42.073 121.838 41.6148 119.602 40.6984C117.366 39.782 115.57 38.4257 114.214 36.6296C112.894 34.8335 112.198 32.6708 112.125 30.1415H122.132C122.278 31.5711 122.773 32.6708 123.616 33.4405C124.459 34.1737 125.559 34.5402 126.915 34.5402C128.308 34.5402 129.408 34.2286 130.214 33.6055C131.021 32.9457 131.424 32.0476 131.424 30.9113C131.424 29.9582 131.094 29.1701 130.434 28.547C129.811 27.9238 129.023 27.4106 128.07 27.0074C127.153 26.6042 125.834 26.146 124.111 25.6328C121.618 24.863 119.584 24.0933 118.008 23.3235C116.432 22.5537 115.075 21.4174 113.939 19.9145C112.803 18.4116 112.235 16.4505 112.235 14.0312C112.235 10.4389 113.536 7.63473 116.138 5.61865C118.741 3.56592 122.132 2.53955 126.31 2.53955C130.562 2.53955 133.99 3.56592 136.592 5.61865C139.195 7.63473 140.588 10.4572 140.771 14.0862H130.599C130.526 12.8399 130.068 11.8685 129.225 11.172C128.381 10.4389 127.3 10.0724 125.98 10.0724C124.844 10.0724 123.928 10.3839 123.231 11.0071C122.535 11.5936 122.187 12.455 122.187 13.5913C122.187 14.8376 122.773 15.809 123.946 16.5055C125.119 17.2019 126.952 17.9534 129.444 18.7598C131.937 19.6029 133.953 20.4093 135.493 21.1791C137.069 21.9489 138.425 23.0669 139.562 24.5331C140.698 25.9994 141.266 27.8872 141.266 30.1965C141.266 32.3958 140.698 34.3936 139.562 36.1897C138.462 37.9859 136.849 39.4155 134.723 40.4785C132.597 41.5415 130.086 42.073 127.19 42.073Z" fill="#FCF259"/>
<path d="M145.458 22.3338C145.458 18.5216 146.282 15.1309 147.932 12.1617C149.582 9.15595 151.872 6.8283 154.805 5.17878C157.774 3.4926 161.128 2.64952 164.867 2.64952C169.449 2.64952 173.371 3.85916 176.634 6.27846C179.896 8.69775 182.077 11.9968 183.177 16.1756H172.84C172.07 14.5627 170.97 13.3347 169.541 12.4916C168.148 11.6486 166.553 11.227 164.757 11.227C161.861 11.227 159.515 12.2351 157.719 14.2511C155.923 16.2672 155.025 18.9614 155.025 22.3338C155.025 25.7061 155.923 28.4003 157.719 30.4164C159.515 32.4325 161.861 33.4405 164.757 33.4405C166.553 33.4405 168.148 33.019 169.541 32.1759C170.97 31.3328 172.07 30.1048 172.84 28.492H183.177C182.077 32.6708 179.896 35.9698 176.634 38.3891C173.371 40.7717 169.449 41.963 164.867 41.963C161.128 41.963 157.774 41.1383 154.805 39.4888C151.872 37.8026 149.582 35.4749 147.932 32.5058C146.282 29.5367 145.458 26.146 145.458 22.3338Z" fill="#FCF259"/>
<path d="M230.003 15.5158C230.003 17.7518 229.49 19.8045 228.463 21.674C227.437 23.5068 225.861 24.9913 223.735 26.1277C221.609 27.264 218.969 27.8322 215.817 27.8322H209.989V41.6881H200.586V3.08939H215.817C218.896 3.08939 221.499 3.6209 223.625 4.68392C225.751 5.74695 227.345 7.21318 228.408 9.08264C229.471 10.9521 230.003 13.0965 230.003 15.5158ZM215.102 20.3544C216.898 20.3544 218.236 19.9328 219.116 19.0897C219.996 18.2466 220.436 17.0553 220.436 15.5158C220.436 13.9762 219.996 12.7849 219.116 11.9418C218.236 11.0987 216.898 10.6772 215.102 10.6772H209.989V20.3544H215.102Z" fill="#FCF259"/>
<path d="M244.3 1V41.6881H234.898V1H244.3Z" fill="#FCF259"/>
<path d="M281.41 11.0071V41.6881H272.008V37.5093C271.055 38.8656 269.753 39.9653 268.104 40.8084C266.491 41.6148 264.695 42.018 262.715 42.018C260.369 42.018 258.298 41.5048 256.502 40.4785C254.706 39.4155 253.313 37.8942 252.323 35.9148C251.334 33.9354 250.839 31.6077 250.839 28.9318V11.0071H260.186V27.6672C260.186 29.72 260.718 31.3145 261.781 32.4508C262.844 33.5872 264.273 34.1553 266.069 34.1553C267.902 34.1553 269.35 33.5872 270.413 32.4508C271.476 31.3145 272.008 29.72 272.008 27.6672V11.0071H281.41Z" fill="#FCF259"/>
<path d="M300.645 42.128C297.969 42.128 295.586 41.6698 293.497 40.7534C291.407 39.837 289.758 38.5907 288.548 37.0145C287.339 35.4016 286.661 33.6055 286.514 31.6261H295.806C295.916 32.6891 296.411 33.5505 297.291 34.2103C298.17 34.8701 299.252 35.2 300.535 35.2C301.708 35.2 302.606 34.9801 303.229 34.5402C303.889 34.0637 304.219 33.4589 304.219 32.7257C304.219 31.846 303.761 31.2045 302.844 30.8013C301.928 30.3614 300.443 29.8849 298.39 29.3717C296.191 28.8585 294.358 28.327 292.892 27.7772C291.426 27.1907 290.161 26.2926 289.098 25.083C288.035 23.8367 287.504 22.1688 287.504 20.0794C287.504 18.3199 287.98 16.7254 288.933 15.2958C289.923 13.8296 291.352 12.6749 293.222 11.8318C295.128 10.9888 297.382 10.5672 299.985 10.5672C303.834 10.5672 306.858 11.5203 309.057 13.4264C311.293 15.3325 312.576 17.8617 312.906 21.0142H304.219C304.072 19.9511 303.596 19.108 302.789 18.4849C302.019 17.8617 300.993 17.5502 299.71 17.5502C298.61 17.5502 297.767 17.7701 297.181 18.21C296.594 18.6132 296.301 19.1814 296.301 19.9145C296.301 20.7942 296.759 21.454 297.676 21.8939C298.629 22.3338 300.095 22.7736 302.074 23.2135C304.347 23.8 306.198 24.3865 307.628 24.973C309.057 25.5228 310.304 26.4392 311.367 27.7222C312.466 28.9685 313.034 30.6547 313.071 32.7807C313.071 34.5769 312.558 36.1897 311.532 37.6193C310.542 39.0122 309.094 40.1119 307.188 40.9184C305.318 41.7248 303.137 42.128 300.645 42.128Z" fill="#FCF259"/>
<path d="M202.626 85.4302H214.943V92.6881H193.224V54.0894H202.626V85.4302Z" fill="#85193C"/>
<path d="M223.393 83.128C220.388 83.128 217.675 82.4865 215.256 81.2036C212.873 79.9206 210.985 78.0878 209.592 75.7052C208.236 73.3225 207.558 70.5367 207.558 67.3476C207.558 64.1952 208.255 61.4277 209.647 59.045C211.04 56.6257 212.946 54.7746 215.366 53.4916C217.785 52.2087 220.498 51.5672 223.503 51.5672C226.509 51.5672 229.222 52.2087 231.641 53.4916C234.06 54.7746 235.966 56.6257 237.359 59.045C238.752 61.4277 239.449 64.1952 239.449 67.3476C239.449 70.5 238.734 73.2859 237.304 75.7052C235.911 78.0878 233.987 79.9206 231.531 81.2036C229.112 82.4865 226.399 83.128 223.393 83.128ZM223.393 74.9904C225.19 74.9904 226.711 74.3306 227.957 73.0109C229.24 71.6913 229.882 69.8036 229.882 67.3476C229.882 64.8917 229.258 63.0039 228.012 61.6843C226.802 60.3646 225.3 59.7048 223.503 59.7048C221.671 59.7048 220.149 60.3646 218.94 61.6843C217.73 62.9672 217.125 64.855 217.125 67.3476C217.125 69.8036 217.712 71.6913 218.885 73.0109C220.094 74.3306 221.597 74.9904 223.393 74.9904Z" fill="#85193C"/>
<path d="M256.093 51.5672C258.256 51.5672 260.144 52.0071 261.757 52.8868C263.406 53.7666 264.671 54.9212 265.551 56.3508V52.0071H274.953V82.6331C274.953 85.4557 274.385 88.0032 273.248 90.2759C272.149 92.5852 270.444 94.418 268.135 95.7743C265.862 97.1306 263.021 97.8087 259.612 97.8087C255.067 97.8087 251.383 96.7274 248.561 94.5647C245.738 92.4386 244.125 89.5428 243.722 85.8772H253.014C253.308 87.0502 254.004 87.9666 255.104 88.6264C256.203 89.3229 257.56 89.6711 259.173 89.6711C261.115 89.6711 262.655 89.1029 263.791 87.9666C264.964 86.8669 265.551 85.0891 265.551 82.6331V78.2894C264.634 79.719 263.37 80.892 261.757 81.8084C260.144 82.6881 258.256 83.128 256.093 83.128C253.564 83.128 251.273 82.4865 249.22 81.2036C247.168 79.8839 245.537 78.0328 244.327 75.6502C243.154 73.2309 242.567 70.445 242.567 67.2926C242.567 64.1402 243.154 61.3727 244.327 58.99C245.537 56.6074 247.168 54.7746 249.22 53.4916C251.273 52.2087 253.564 51.5672 256.093 51.5672ZM265.551 67.3476C265.551 65.0016 264.891 63.1505 263.571 61.7942C262.288 60.438 260.712 59.7598 258.843 59.7598C256.973 59.7598 255.379 60.438 254.059 61.7942C252.776 63.1138 252.135 64.9466 252.135 67.2926C252.135 69.6386 252.776 71.5081 254.059 72.901C255.379 74.2573 256.973 74.9354 258.843 74.9354C260.712 74.9354 262.288 74.2573 263.571 72.901C264.891 71.5447 265.551 69.6936 265.551 67.3476Z" fill="#85193C"/>
<path d="M293.412 51.5672C295.574 51.5672 297.462 52.0071 299.075 52.8868C300.725 53.7666 301.989 54.9212 302.869 56.3508V52.0071H312.271V82.6331C312.271 85.4557 311.703 88.0032 310.567 90.2759C309.467 92.5852 307.762 94.418 305.453 95.7743C303.18 97.1306 300.34 97.8087 296.931 97.8087C292.385 97.8087 288.701 96.7274 285.879 94.5647C283.056 92.4386 281.443 89.5428 281.04 85.8772H290.333C290.626 87.0502 291.322 87.9666 292.422 88.6264C293.522 89.3229 294.878 89.6711 296.491 89.6711C298.434 89.6711 299.973 89.1029 301.109 87.9666C302.282 86.8669 302.869 85.0891 302.869 82.6331V78.2894C301.952 79.719 300.688 80.892 299.075 81.8084C297.462 82.6881 295.574 83.128 293.412 83.128C290.882 83.128 288.591 82.4865 286.539 81.2036C284.486 79.8839 282.855 78.0328 281.645 75.6502C280.472 73.2309 279.886 70.445 279.886 67.2926C279.886 64.1402 280.472 61.3727 281.645 58.99C282.855 56.6074 284.486 54.7746 286.539 53.4916C288.591 52.2087 290.882 51.5672 293.412 51.5672ZM302.869 67.3476C302.869 65.0016 302.209 63.1505 300.889 61.7942C299.607 60.438 298.03 59.7598 296.161 59.7598C294.291 59.7598 292.697 60.438 291.377 61.7942C290.094 63.1138 289.453 64.9466 289.453 67.2926C289.453 69.6386 290.094 71.5081 291.377 72.901C292.697 74.2573 294.291 74.9354 296.161 74.9354C298.03 74.9354 299.607 74.2573 300.889 72.901C302.209 71.5447 302.869 69.6936 302.869 67.3476Z" fill="#FCF259"/>
<path d="M347.995 66.8527C347.995 67.7325 347.94 68.6489 347.83 69.6019H326.551C326.698 71.5081 327.303 72.9743 328.366 74.0007C329.465 74.9904 330.803 75.4852 332.379 75.4852C334.725 75.4852 336.357 74.4955 337.273 72.5161H347.28C346.767 74.5322 345.832 76.3466 344.476 77.9595C343.156 79.5724 341.488 80.837 339.472 81.7534C337.456 82.6698 335.202 83.128 332.709 83.128C329.703 83.128 327.028 82.4865 324.682 81.2036C322.336 79.9206 320.503 78.0878 319.183 75.7052C317.864 73.3225 317.204 70.5367 317.204 67.3476C317.204 64.1585 317.845 61.3727 319.128 58.99C320.448 56.6074 322.281 54.7746 324.627 53.4916C326.973 52.2087 329.667 51.5672 332.709 51.5672C335.678 51.5672 338.318 52.1904 340.627 53.4367C342.936 54.683 344.732 56.4608 346.015 58.7701C347.335 61.0794 347.995 63.7736 347.995 66.8527ZM338.373 64.3785C338.373 62.7656 337.823 61.4826 336.723 60.5296C335.623 59.5765 334.249 59.1 332.599 59.1C331.023 59.1 329.685 59.5582 328.585 60.4746C327.522 61.391 326.863 62.6923 326.606 64.3785H338.373Z" fill="#FCF259"/>
<path d="M362.357 57.1206C363.457 55.4344 364.831 54.1148 366.481 53.1617C368.131 52.172 369.963 51.6772 371.979 51.6772V61.6293H369.395C367.049 61.6293 365.29 62.1425 364.117 63.1688C362.944 64.1585 362.357 65.918 362.357 68.4473V82.6881H352.955V52.0071H362.357V57.1206Z" fill="#FCF259"/>
<path d="M129.455 83.9231H116.615L114.556 90H105.784L118.232 55.5968H127.935L140.383 90H131.513L129.455 83.9231ZM127.298 77.4541L123.035 64.8592L118.82 77.4541H127.298Z" fill="#FCF259"/>
<path d="M170.391 66.6725C170.391 68.6655 169.933 70.4951 169.019 72.1613C168.104 73.7949 166.699 75.1181 164.804 76.1309C162.909 77.1437 160.557 77.6501 157.747 77.6501H152.552V90H144.172V55.5968H157.747C160.491 55.5968 162.811 56.0705 164.706 57.018C166.601 57.9655 168.022 59.2724 168.97 60.9386C169.917 62.6049 170.391 64.5162 170.391 66.6725ZM157.11 70.9851C158.711 70.9851 159.903 70.6094 160.687 69.858C161.472 69.1065 161.864 68.0447 161.864 66.6725C161.864 65.3003 161.472 64.2384 160.687 63.487C159.903 62.7356 158.711 62.3598 157.11 62.3598H152.552V70.9851H157.11Z" fill="#FCF259"/>
<path d="M183.134 55.5968V90H174.754V55.5968H183.134Z" fill="#FCF259"/>
<path d="M127.19 42.073C124.368 42.073 121.838 41.6148 119.602 40.6984C117.366 39.782 115.57 38.4257 114.214 36.6296C112.894 34.8335 112.198 32.6708 112.125 30.1415H122.132C122.278 31.5711 122.773 32.6708 123.616 33.4405C124.459 34.1737 125.559 34.5402 126.915 34.5402C128.308 34.5402 129.408 34.2286 130.214 33.6055C131.021 32.9457 131.424 32.0476 131.424 30.9113C131.424 29.9582 131.094 29.1701 130.434 28.547C129.811 27.9238 129.023 27.4106 128.07 27.0074C127.153 26.6042 125.834 26.146 124.111 25.6328C121.618 24.863 119.584 24.0933 118.008 23.3235C116.432 22.5537 115.075 21.4174 113.939 19.9145C112.803 18.4116 112.235 16.4505 112.235 14.0312C112.235 10.4389 113.536 7.63473 116.138 5.61865C118.741 3.56592 122.132 2.53955 126.31 2.53955C130.562 2.53955 133.99 3.56592 136.592 5.61865C139.195 7.63473 140.588 10.4572 140.771 14.0862H130.599C130.526 12.8399 130.068 11.8685 129.225 11.172C128.381 10.4389 127.3 10.0724 125.98 10.0724C124.844 10.0724 123.928 10.3839 123.231 11.0071C122.535 11.5936 122.187 12.455 122.187 13.5913C122.187 14.8376 122.773 15.809 123.946 16.5055C125.119 17.2019 126.952 17.9534 129.444 18.7598C131.937 19.6029 133.953 20.4093 135.493 21.1791C137.069 21.9489 138.425 23.0669 139.562 24.5331C140.698 25.9994 141.266 27.8872 141.266 30.1965C141.266 32.3958 140.698 34.3936 139.562 36.1897C138.462 37.9859 136.849 39.4155 134.723 40.4785C132.597 41.5415 130.086 42.073 127.19 42.073Z" stroke="#C5172E" stroke-width="2" mask="url(#path-2-outside-1_49_45)"/>
<path d="M145.458 22.3338C145.458 18.5216 146.282 15.1309 147.932 12.1617C149.582 9.15595 151.872 6.8283 154.805 5.17878C157.774 3.4926 161.128 2.64952 164.867 2.64952C169.449 2.64952 173.371 3.85916 176.634 6.27846C179.896 8.69775 182.077 11.9968 183.177 16.1756H172.84C172.07 14.5627 170.97 13.3347 169.541 12.4916C168.148 11.6486 166.553 11.227 164.757 11.227C161.861 11.227 159.515 12.2351 157.719 14.2511C155.923 16.2672 155.025 18.9614 155.025 22.3338C155.025 25.7061 155.923 28.4003 157.719 30.4164C159.515 32.4325 161.861 33.4405 164.757 33.4405C166.553 33.4405 168.148 33.019 169.541 32.1759C170.97 31.3328 172.07 30.1048 172.84 28.492H183.177C182.077 32.6708 179.896 35.9698 176.634 38.3891C173.371 40.7717 169.449 41.963 164.867 41.963C161.128 41.963 157.774 41.1383 154.805 39.4888C151.872 37.8026 149.582 35.4749 147.932 32.5058C146.282 29.5367 145.458 26.146 145.458 22.3338Z" stroke="#C5172E" stroke-width="2" mask="url(#path-2-outside-1_49_45)"/>
<path d="M230.003 15.5158C230.003 17.7518 229.49 19.8045 228.463 21.674C227.437 23.5068 225.861 24.9913 223.735 26.1277C221.609 27.264 218.969 27.8322 215.817 27.8322H209.989V41.6881H200.586V3.08939H215.817C218.896 3.08939 221.499 3.6209 223.625 4.68392C225.751 5.74695 227.345 7.21318 228.408 9.08264C229.471 10.9521 230.003 13.0965 230.003 15.5158ZM215.102 20.3544C216.898 20.3544 218.236 19.9328 219.116 19.0897C219.996 18.2466 220.436 17.0553 220.436 15.5158C220.436 13.9762 219.996 12.7849 219.116 11.9418C218.236 11.0987 216.898 10.6772 215.102 10.6772H209.989V20.3544H215.102Z" stroke="#C5172E" stroke-width="2" mask="url(#path-2-outside-1_49_45)"/>
<path d="M244.3 1V41.6881H234.898V1H244.3Z" stroke="#C5172E" stroke-width="2" mask="url(#path-2-outside-1_49_45)"/>
<path d="M281.41 11.0071V41.6881H272.008V37.5093C271.055 38.8656 269.753 39.9653 268.104 40.8084C266.491 41.6148 264.695 42.018 262.715 42.018C260.369 42.018 258.298 41.5048 256.502 40.4785C254.706 39.4155 253.313 37.8942 252.323 35.9148C251.334 33.9354 250.839 31.6077 250.839 28.9318V11.0071H260.186V27.6672C260.186 29.72 260.718 31.3145 261.781 32.4508C262.844 33.5872 264.273 34.1553 266.069 34.1553C267.902 34.1553 269.35 33.5872 270.413 32.4508C271.476 31.3145 272.008 29.72 272.008 27.6672V11.0071H281.41Z" stroke="#C5172E" stroke-width="2" mask="url(#path-2-outside-1_49_45)"/>
<path d="M300.645 42.128C297.969 42.128 295.586 41.6698 293.497 40.7534C291.407 39.837 289.758 38.5907 288.548 37.0145C287.339 35.4016 286.661 33.6055 286.514 31.6261H295.806C295.916 32.6891 296.411 33.5505 297.291 34.2103C298.17 34.8701 299.252 35.2 300.535 35.2C301.708 35.2 302.606 34.9801 303.229 34.5402C303.889 34.0637 304.219 33.4589 304.219 32.7257C304.219 31.846 303.761 31.2045 302.844 30.8013C301.928 30.3614 300.443 29.8849 298.39 29.3717C296.191 28.8585 294.358 28.327 292.892 27.7772C291.426 27.1907 290.161 26.2926 289.098 25.083C288.035 23.8367 287.504 22.1688 287.504 20.0794C287.504 18.3199 287.98 16.7254 288.933 15.2958C289.923 13.8296 291.352 12.6749 293.222 11.8318C295.128 10.9888 297.382 10.5672 299.985 10.5672C303.834 10.5672 306.858 11.5203 309.057 13.4264C311.293 15.3325 312.576 17.8617 312.906 21.0142H304.219C304.072 19.9511 303.596 19.108 302.789 18.4849C302.019 17.8617 300.993 17.5502 299.71 17.5502C298.61 17.5502 297.767 17.7701 297.181 18.21C296.594 18.6132 296.301 19.1814 296.301 19.9145C296.301 20.7942 296.759 21.454 297.676 21.8939C298.629 22.3338 300.095 22.7736 302.074 23.2135C304.347 23.8 306.198 24.3865 307.628 24.973C309.057 25.5228 310.304 26.4392 311.367 27.7222C312.466 28.9685 313.034 30.6547 313.071 32.7807C313.071 34.5769 312.558 36.1897 311.532 37.6193C310.542 39.0122 309.094 40.1119 307.188 40.9184C305.318 41.7248 303.137 42.128 300.645 42.128Z" stroke="#C5172E" stroke-width="2" mask="url(#path-2-outside-1_49_45)"/>
<path d="M202.626 85.4302H214.943V92.6881H193.224V54.0894H202.626V85.4302Z" stroke="#C5172E" stroke-width="2" mask="url(#path-2-outside-1_49_45)"/>
<path d="M223.393 83.128C220.388 83.128 217.675 82.4865 215.256 81.2036C212.873 79.9206 210.985 78.0878 209.592 75.7052C208.236 73.3225 207.558 70.5367 207.558 67.3476C207.558 64.1952 208.255 61.4277 209.647 59.045C211.04 56.6257 212.946 54.7746 215.366 53.4916C217.785 52.2087 220.498 51.5672 223.503 51.5672C226.509 51.5672 229.222 52.2087 231.641 53.4916C234.06 54.7746 235.966 56.6257 237.359 59.045C238.752 61.4277 239.449 64.1952 239.449 67.3476C239.449 70.5 238.734 73.2859 237.304 75.7052C235.911 78.0878 233.987 79.9206 231.531 81.2036C229.112 82.4865 226.399 83.128 223.393 83.128ZM223.393 74.9904C225.19 74.9904 226.711 74.3306 227.957 73.0109C229.24 71.6913 229.882 69.8036 229.882 67.3476C229.882 64.8917 229.258 63.0039 228.012 61.6843C226.802 60.3646 225.3 59.7048 223.503 59.7048C221.671 59.7048 220.149 60.3646 218.94 61.6843C217.73 62.9672 217.125 64.855 217.125 67.3476C217.125 69.8036 217.712 71.6913 218.885 73.0109C220.094 74.3306 221.597 74.9904 223.393 74.9904Z" stroke="#C5172E" stroke-width="2" mask="url(#path-2-outside-1_49_45)"/>
<path d="M256.093 51.5672C258.256 51.5672 260.144 52.0071 261.757 52.8868C263.406 53.7666 264.671 54.9212 265.551 56.3508V52.0071H274.953V82.6331C274.953 85.4557 274.385 88.0032 273.248 90.2759C272.149 92.5852 270.444 94.418 268.135 95.7743C265.862 97.1306 263.021 97.8087 259.612 97.8087C255.067 97.8087 251.383 96.7274 248.561 94.5647C245.738 92.4386 244.125 89.5428 243.722 85.8772H253.014C253.308 87.0502 254.004 87.9666 255.104 88.6264C256.203 89.3229 257.56 89.6711 259.173 89.6711C261.115 89.6711 262.655 89.1029 263.791 87.9666C264.964 86.8669 265.551 85.0891 265.551 82.6331V78.2894C264.634 79.719 263.37 80.892 261.757 81.8084C260.144 82.6881 258.256 83.128 256.093 83.128C253.564 83.128 251.273 82.4865 249.22 81.2036C247.168 79.8839 245.537 78.0328 244.327 75.6502C243.154 73.2309 242.567 70.445 242.567 67.2926C242.567 64.1402 243.154 61.3727 244.327 58.99C245.537 56.6074 247.168 54.7746 249.22 53.4916C251.273 52.2087 253.564 51.5672 256.093 51.5672ZM265.551 67.3476C265.551 65.0016 264.891 63.1505 263.571 61.7942C262.288 60.438 260.712 59.7598 258.843 59.7598C256.973 59.7598 255.379 60.438 254.059 61.7942C252.776 63.1138 252.135 64.9466 252.135 67.2926C252.135 69.6386 252.776 71.5081 254.059 72.901C255.379 74.2573 256.973 74.9354 258.843 74.9354C260.712 74.9354 262.288 74.2573 263.571 72.901C264.891 71.5447 265.551 69.6936 265.551 67.3476Z" stroke="#C5172E" stroke-width="2" mask="url(#path-2-outside-1_49_45)"/>
<path d="M293.412 51.5672C295.574 51.5672 297.462 52.0071 299.075 52.8868C300.725 53.7666 301.989 54.9212 302.869 56.3508V52.0071H312.271V82.6331C312.271 85.4557 311.703 88.0032 310.567 90.2759C309.467 92.5852 307.762 94.418 305.453 95.7743C303.18 97.1306 300.34 97.8087 296.931 97.8087C292.385 97.8087 288.701 96.7274 285.879 94.5647C283.056 92.4386 281.443 89.5428 281.04 85.8772H290.333C290.626 87.0502 291.322 87.9666 292.422 88.6264C293.522 89.3229 294.878 89.6711 296.491 89.6711C298.434 89.6711 299.973 89.1029 301.109 87.9666C302.282 86.8669 302.869 85.0891 302.869 82.6331V78.2894C301.952 79.719 300.688 80.892 299.075 81.8084C297.462 82.6881 295.574 83.128 293.412 83.128C290.882 83.128 288.591 82.4865 286.539 81.2036C284.486 79.8839 282.855 78.0328 281.645 75.6502C280.472 73.2309 279.886 70.445 279.886 67.2926C279.886 64.1402 280.472 61.3727 281.645 58.99C282.855 56.6074 284.486 54.7746 286.539 53.4916C288.591 52.2087 290.882 51.5672 293.412 51.5672ZM302.869 67.3476C302.869 65.0016 302.209 63.1505 300.889 61.7942C299.607 60.438 298.03 59.7598 296.161 59.7598C294.291 59.7598 292.697 60.438 291.377 61.7942C290.094 63.1138 289.453 64.9466 289.453 67.2926C289.453 69.6386 290.094 71.5081 291.377 72.901C292.697 74.2573 294.291 74.9354 296.161 74.9354C298.03 74.9354 299.607 74.2573 300.889 72.901C302.209 71.5447 302.869 69.6936 302.869 67.3476Z" stroke="#C5172E" stroke-width="2" mask="url(#path-2-outside-1_49_45)"/>
<path d="M347.995 66.8527C347.995 67.7325 347.94 68.6489 347.83 69.6019H326.551C326.698 71.5081 327.303 72.9743 328.366 74.0007C329.465 74.9904 330.803 75.4852 332.379 75.4852C334.725 75.4852 336.357 74.4955 337.273 72.5161H347.28C346.767 74.5322 345.832 76.3466 344.476 77.9595C343.156 79.5724 341.488 80.837 339.472 81.7534C337.456 82.6698 335.202 83.128 332.709 83.128C329.703 83.128 327.028 82.4865 324.682 81.2036C322.336 79.9206 320.503 78.0878 319.183 75.7052C317.864 73.3225 317.204 70.5367 317.204 67.3476C317.204 64.1585 317.845 61.3727 319.128 58.99C320.448 56.6074 322.281 54.7746 324.627 53.4916C326.973 52.2087 329.667 51.5672 332.709 51.5672C335.678 51.5672 338.318 52.1904 340.627 53.4367C342.936 54.683 344.732 56.4608 346.015 58.7701C347.335 61.0794 347.995 63.7736 347.995 66.8527ZM338.373 64.3785C338.373 62.7656 337.823 61.4826 336.723 60.5296C335.623 59.5765 334.249 59.1 332.599 59.1C331.023 59.1 329.685 59.5582 328.585 60.4746C327.522 61.391 326.863 62.6923 326.606 64.3785H338.373Z" stroke="#C5172E" stroke-width="2" mask="url(#path-2-outside-1_49_45)"/>
<path d="M362.357 57.1206C363.457 55.4344 364.831 54.1148 366.481 53.1617C368.131 52.172 369.963 51.6772 371.979 51.6772V61.6293H369.395C367.049 61.6293 365.29 62.1425 364.117 63.1688C362.944 64.1585 362.357 65.918 362.357 68.4473V82.6881H352.955V52.0071H362.357V57.1206Z" stroke="#C5172E" stroke-width="2" mask="url(#path-2-outside-1_49_45)"/>
<path d="M129.455 83.9231H116.615L114.556 90H105.784L118.232 55.5968H127.935L140.383 90H131.513L129.455 83.9231ZM127.298 77.4541L123.035 64.8592L118.82 77.4541H127.298Z" stroke="#C5172E" stroke-width="2" mask="url(#path-2-outside-1_49_45)"/>
<path d="M170.391 66.6725C170.391 68.6655 169.933 70.4951 169.019 72.1613C168.104 73.7949 166.699 75.1181 164.804 76.1309C162.909 77.1437 160.557 77.6501 157.747 77.6501H152.552V90H144.172V55.5968H157.747C160.491 55.5968 162.811 56.0705 164.706 57.018C166.601 57.9655 168.022 59.2724 168.97 60.9386C169.917 62.6049 170.391 64.5162 170.391 66.6725ZM157.11 70.9851C158.711 70.9851 159.903 70.6094 160.687 69.858C161.472 69.1065 161.864 68.0447 161.864 66.6725C161.864 65.3003 161.472 64.2384 160.687 63.487C159.903 62.7356 158.711 62.3598 157.11 62.3598H152.552V70.9851H157.11Z" stroke="#C5172E" stroke-width="2" mask="url(#path-2-outside-1_49_45)"/>
<path d="M183.134 55.5968V90H174.754V55.5968H183.134Z" stroke="#C5172E" stroke-width="2" mask="url(#path-2-outside-1_49_45)"/>
</svg>
